<?xml version="1.0" encoding="utf-8"?>
<!-- Generator: Adobe Illustrator 23.0.1, SVG Export Plug-In . SVG Version: 6.00 Build 0)  -->
<svg version="1.1" id="Layer_1" xmlns="http://www.w3.org/2000/svg" xmlns:xlink="http://www.w3.org/1999/xlink" x="0px" y="0px"
	 viewBox="0 0 600 1037" style="enable-background:new 0 0 600 1037;" xml:space="preserve">
<style type="text/css">
	.st0{opacity:0.7;}
	.st1{font-family:'Helvetica-Light';}
	.st2{font-size:11px;}
	.st3{fill:#FC5623;}
	.st4{font-family:'Helvetica-Bold';}
	.st5{font-size:12px;}
	.st6{font-family:'TRMono-Black';}
	.st7{fill:none;stroke:#CCCCCC;}
	.st8{fill:none;}
	.st9{fill:#FC5623;stroke:#FFFFFF;stroke-width:0.5;stroke-miterlimit:10;}
	.st10{fill:#FC5623;stroke:#000000;stroke-width:0.5;stroke-miterlimit:10;}
	.st11{fill:none;stroke:#000000;stroke-miterlimit:10;}
	.st12{fill:none;stroke:#000000;}
	.st13{fill:none;stroke:#000000;stroke-width:0.3414;}
	.st14{opacity:0.6;fill:#FC5623;stroke:#000000;enable-background:new    ;}
	.st15{fill:#FC5623;stroke:#000000;stroke-miterlimit:10;}
	.st16{fill:#FC5623;stroke:#FFFFFF;stroke-miterlimit:10;}
	.st17{opacity:0.6;fill:#FC5623;stroke:#000000;stroke-miterlimit:10;enable-background:new    ;}
</style>
<g class="st0">
	<text transform="matrix(1 0 0 1 13.5513 1025.1611)" class="st1 st2">Chart: Tate Ryan-Mosley &amp; Karen Hao, MIT Technology Review</text>
</g>
<circle id="circle_1_" class="st3" cx="474.8" cy="78.3" r="4"/>
<circle class="st3" cx="493.4" cy="78.3" r="7.3"/>
<circle class="st3" cx="517.7" cy="78.3" r="9.7"/>
<circle class="st3" cx="554.5" cy="78.3" r="20"/>
<g>
	<text transform="matrix(1 0 0 1 547.5001 109.8792)" class="st4 st2">500</text>
</g>
<g>
	<text transform="matrix(1 0 0 1 508.6943 109.8794)" class="st4 st2">100</text>
</g>
<g>
	<text transform="matrix(1 0 0 1 467.7527 109.8794)" class="st4 st2">10</text>
</g>
<g>
	<text transform="matrix(1 0 0 1 488.3738 109.8794)" class="st4 st2">50</text>
</g>
<text transform="matrix(1 0 0 1 361.1992 78.2644)" class="st1 st5">Number of protests</text>
<text transform="matrix(1 0 0 1 361.1992 92.6644)" class="st1 st5">sparked by killing:</text>
<text transform="matrix(1 0 0 1 189.3755 32.5967)" class="st4 st2">OSCAR GRANT*</text>
<text transform="matrix(1 0 0 1 126.1755 46.9967)" class="st1 st5">Shot in the back, face down</text>
<text transform="matrix(1 0 0 1 116.1755 61.3967)" class="st1 st5">on the ground, on New Year’s</text>
<text transform="matrix(1 0 0 1 149.4755 75.7967)" class="st1 st5">Day. First fatal shooting</text>
<text transform="matrix(1 0 0 1 150.1755 90.1967)" class="st1 st5">captured by cell-phone</text>
<text transform="matrix(1 0 0 1 222.1755 104.5967)" class="st1 st5">cameras. </text>
<g>
	<text transform="matrix(1 0 0 1 362.5455 543.4307)" class="st4 st2">WALTER SCOTT</text>
	<text transform="matrix(1 0 0 1 362.5455 557.8307)" class="st1 st5">Shot in the back after being</text>
	<text transform="matrix(1 0 0 1 362.5455 572.2307)" class="st1 st5">stopped for broken brake light.</text>
	<text transform="matrix(1 0 0 1 362.5455 586.6307)" class="st1 st5">One of the few cases leading to a</text>
	<text transform="matrix(1 0 0 1 362.5455 601.0308)" class="st1 st5">conviction. Officer sentenced to</text>
	<text transform="matrix(1 0 0 1 362.5455 615.4307)" class="st1 st5">20 years.</text>
</g>
<text transform="matrix(1 0 0 1 187.7429 907.0601)" class="st4 st2">GEORGE FLOYD</text>
<text transform="matrix(1 0 0 1 137.6429 921.4601)" class="st1 st5">Has sparked 584 protests</text>
<text transform="matrix(1 0 0 1 133.6429 935.8601)" class="st1 st5">globally, as of June 8—the</text>
<text transform="matrix(1 0 0 1 120.9429 950.2601)" class="st1 st5">largest number by more than</text>
<text transform="matrix(1 0 0 1 208.9429 964.6601)" class="st1 st5">a factor of 4.</text>
<text transform="matrix(1 0 0 1 187.0259 529.2559)" class="st4 st2">SANDRA BLAND</text>
<text transform="matrix(1 0 0 1 131.5259 543.6559)" class="st1 st5">Found hanging in jail cell 3</text>
<text transform="matrix(1 0 0 1 121.6259 558.0559)" class="st1 st5">days after arrest for failure to</text>
<text transform="matrix(1 0 0 1 118.9259 572.4559)" class="st1 st5">signal. Death ruled a suicide.</text>
<text transform="matrix(1 0 0 1 122.9259 586.856)" class="st1 st5">Leads to national legislation,</text>
<text transform="matrix(1 0 0 1 157.6259 601.2559)" class="st1 st5">the Sandra Bland Act.</text>
<text transform="matrix(1 0 0 1 198.3827 449.8159)" class="st4 st2">ERIC GARNER</text>
<text transform="matrix(1 0 0 1 129.2827 464.2159)" class="st1 st5">Suffocated in chokehold as</text>
<text transform="matrix(1 0 0 1 125.2827 478.6159)" class="st1 st5">he pleads, “I can’t breathe.”</text>
<text transform="matrix(1 0 0 1 145.9827 493.0159)" class="st1 st5">Leads to NYPD reforms.</text>
<text transform="matrix(1 0 0 1 167.9972 635.8481)" class="st4 st2">PHILANDO CASTILE</text>
<text transform="matrix(1 0 0 1 126.1972 650.248)" class="st1 st5">Shot 5 times at a traffic stop</text>
<text transform="matrix(1 0 0 1 120.1972 664.6481)" class="st1 st5">near Minneapolis. Leads to a</text>
<text transform="matrix(1 0 0 1 123.4972 679.0481)" class="st1 st5">DOJ investigation and minor</text>
<text transform="matrix(1 0 0 1 166.1972 693.4481)" class="st1 st5">department reforms.</text>
<g>
	<text transform="matrix(1 0 0 1 362.5148 435.3611)" class="st4 st2">MICHAEL BROWN</text>
	<text transform="matrix(1 0 0 1 362.5148 449.7611)" class="st1 st5">Shot 6 times in the front. Leads to</text>
	<text transform="matrix(1 0 0 1 362.5148 464.1611)" class="st1 st5">widespread civil unrest. Obama</text>
	<text transform="matrix(1 0 0 1 362.5148 478.5611)" class="st1 st5">creates President&apos;s Task force on</text>
	<text transform="matrix(1 0 0 1 362.5148 492.9611)" class="st1 st5">21st Century Policing.</text>
</g>
<text transform="matrix(1 0 0 1 13.4241 36.4448)" class="st6 st5">2009</text>
<text transform="matrix(1 0 0 1 13.4246 117.4783)" class="st6 st5">2010</text>
<g>
	<text transform="matrix(1 0 0 1 13.4241 198.5122)" class="st6 st5">2011</text>
</g>
<g>
	<text transform="matrix(1 0 0 1 13.4242 279.5455)" class="st6 st5">2012</text>
</g>
<path class="st7" d="M45.7,206.9"/>
<g>
	<text transform="matrix(1 0 0 1 13.4244 360.579)" class="st6 st5">2013</text>
</g>
<path class="st7" d="M45.7,270.5"/>
<g>
	<text transform="matrix(1 0 0 1 13.4241 441.6129)" class="st6 st5">2014</text>
</g>
<path class="st7" d="M45.7,334"/>
<g>
	<text transform="matrix(1 0 0 1 13.4246 522.6459)" class="st6 st5">2015</text>
</g>
<g>
	<text transform="matrix(1 0 0 1 13.4241 603.6798)" class="st6 st5">2016</text>
</g>
<g>
	<text transform="matrix(1 0 0 1 13.4238 684.7137)" class="st6 st5">2017</text>
</g>
<g>
	<text transform="matrix(1 0 0 1 13.4244 765.7466)" class="st6 st5">2018</text>
</g>
<g>
	<text transform="matrix(1 0 0 1 13.4241 846.7805)" class="st6 st5">2019</text>
</g>
<g>
	<g>
		<line class="st8" x1="45.7" y1="923.9" x2="39.7" y2="923.9"/>
		<text transform="matrix(1 0 0 1 13.4246 927.814)" class="st6 st5">2020</text>
	</g>
</g>
<path class="st9" d="M309.7,400.1"/>
<path class="st10" d="M285,552.1"/>
<path class="st9" d="M325.8,479.6"/>
<line class="st11" x1="333.2" y1="484.9" x2="360" y2="484.9"/>
<line class="st11" x1="300.2" y1="954.9" x2="277" y2="954.9"/>
<line class="st11" x1="277" y1="32.1" x2="316" y2="32.1"/>
<line class="st11" x1="308.3" y1="640.6" x2="277" y2="640.6"/>
<line class="st11" x1="277.2" y1="560.1" x2="315" y2="560.1"/>
<text transform="matrix(1 0 0 1 172.1391 260.9446)" class="st4 st2">TRAYVON MARTIN*</text>
<text transform="matrix(1 0 0 1 116.6391 275.3446)" class="st1 st5">Shot while walking home from</text>
<text transform="matrix(1 0 0 1 119.2391 289.7446)" class="st1 st5">a convenience store. Only 17</text>
<text transform="matrix(1 0 0 1 125.9391 304.1446)" class="st1 st5">years old. Officer’s acquittal</text>
<text transform="matrix(1 0 0 1 159.9391 318.5446)" class="st1 st5">sparks the creation of</text>
<text transform="matrix(1 0 0 1 174.0391 332.9446)" class="st1 st5">#BlackLivesMatter.</text>
<line class="st12" x1="307.1" y1="286.7" x2="277" y2="286.7"/>
<g>
	<text transform="matrix(1 0 0 1 361.8477 825.4824)" class="st4 st2">DECYNTHIA CLEMENTS, ANTWON</text>
	<text transform="matrix(1 0 0 1 361.8477 839.8824)" class="st4 st2">ROSE</text>
	<text transform="matrix(1 0 0 1 393.0477 839.8824)" class="st1 st5">, and </text>
	<text transform="matrix(1 0 0 1 423.7477 839.8824)" class="st4 st2">DE’VON BAILEY</text>
	<text transform="matrix(1 0 0 1 361.8477 854.2824)" class="st1 st5">Three additional deaths lead to no</text>
	<text transform="matrix(1 0 0 1 361.8477 868.6824)" class="st1 st5">meaningful change.</text>
</g>
<g class="st0">
	<text transform="matrix(1 0 0 1 13.5513 1012.1611)" class="st1 st2">Sources: *protest count before 2013 estimated from media; after 2013 from Elephrame</text>
</g>
<line class="st13" x1="60.6" y1="0" x2="60.6" y2="951"/>
<circle class="st14" cx="322" cy="287.1" r="14.7"/>
<circle class="st15" cx="321.6" cy="485.4" r="13.9"/>
<circle class="st3" cx="321.6" cy="587.9" r="8"/>
<circle class="st3" cx="321.6" cy="775.6" r="5.6"/>
<circle class="st3" cx="321.6" cy="539.9" r="7.6"/>
<circle class="st15" cx="321.6" cy="538.1" r="5.1"/>
<circle class="st3" cx="321.6" cy="797.6" r="5.5"/>
<circle class="st15" cx="321.6" cy="955.6" r="25.4"/>
<circle class="st15" cx="321.6" cy="560.2" r="6.6"/>
<circle class="st3" cx="321.6" cy="638.1" r="12.7"/>
<circle class="st15" cx="321.6" cy="640.9" r="12.7"/>
<circle class="st3" cx="321.6" cy="888.2" r="5.5"/>
<circle class="st15" cx="322.2" cy="480.7" r="10"/>
<circle class="st16" cx="322" cy="502.1" r="8.1"/>
<circle class="st16" cx="322.8" cy="509.7" r="7.1"/>
<line class="st11" x1="326.7" y1="538.1" x2="360" y2="538.1"/>
<g>
	<path class="st12" d="M330.4,771.7c1.1,0.1,2.8,0.6,4.2,1.7c0.3,0.3,0.5,0.4,0.8,0.6c2,2,2.9,4.8,3.2,5.5c0.9,3.2,1.1,5.1,1.1,5.1
		c0.5,4.2,0.5,7.5,0.5,9.9c0,7.6,0,5.5,0,10.7c0,3.6,0.1,7.2,0.1,10.8c0,0.1,0,1.8,0.3,4.1c0.3,2,0.5,3.2,0.9,4.2
		c0.6,1.7,1.1,2.5,1.4,2.8c0.3,0.4,0.9,1.3,2,2c0.8,0.5,2,1.4,4.1,2.2"/>
	<path class="st12" d="M330.4,890.7c1.1-0.1,2.8-0.6,4.2-1.7c0.3-0.3,0.5-0.4,0.8-0.6c2-2,2.9-4.8,3.2-5.5c0.9-3.2,1.1-5.1,1.1-5.1
		c0.5-4.2,0.5-7.5,0.5-9.9c0-7.6,0-5.5,0-10.7c0-3.6,0.1-7.2,0.1-10.8c0-0.1,0-1.8,0.3-4.1c0.3-2,0.5-3.2,0.9-4.2
		c0.6-1.7,1.1-2.5,1.4-2.8c0.3-0.4,0.9-1.3,2-2c0.8-0.5,2-1.4,4.1-2.2"/>
</g>
<circle class="st17" cx="322.8" cy="32.6" r="6.6"/>
<line class="st11" x1="277" y1="480.6" x2="311.7" y2="480.6"/>
</svg>
